<?xml version="1.0" encoding="utf-8"?>
<svg version="1.2" baseProfile="tiny" id="Layer_1" xmlns="http://www.w3.org/2000/svg" xmlns:xlink="http://www.w3.org/1999/xlink"
	 x="0px" y="0px" width="600px" height="100px" viewBox="0 0 600 100" xml:space="preserve">
<g>
	<path fill="#E5E5E5" d="M116.945,92.711c0,0.543-0.136,0.815-0.408,0.815c-2.812,0-5.032-0.044-6.664-0.136l-9.384-0.137
		l-8.704,0.137c-1.452,0.092-3.492,0.136-6.12,0.136c-0.183,0-0.272-0.272-0.272-0.815c0-0.545,0.089-0.816,0.272-0.816
		c3.081,0,5.372-0.249,6.868-0.748c1.496-0.498,2.492-1.381,2.992-2.652c0.498-1.269,0.657-3.264,0.476-5.984L93.554,20.63
		L62.545,92.574c-0.183,0.363-0.544,0.544-1.088,0.544c-0.455,0-0.863-0.181-1.224-0.544L26.777,21.446l-1.224,57.256
		c-0.092,4.808,0.725,8.207,2.448,10.2c1.721,1.996,4.76,2.992,9.112,2.992c0.181,0,0.272,0.271,0.272,0.816
		c0,0.543-0.091,0.815-0.272,0.815c-2.539,0-4.488-0.044-5.848-0.136l-7.344-0.137l-7.072,0.137
		c-1.271,0.092-3.083,0.136-5.44,0.136c-0.183,0-0.272-0.272-0.272-0.815c0-0.545,0.089-0.816,0.272-0.816
		c3.808,0,6.549-1.02,8.228-3.061c1.676-2.039,2.561-5.416,2.652-10.132l1.224-63.104c-2.72-3.625-6.439-5.44-11.152-5.44
		c-0.183,0-0.272-0.272-0.272-0.816s0.089-0.816,0.272-0.816l5.032,0.136c0.905,0.091,2.176,0.136,3.808,0.136
		c1.632,0,3.013-0.044,4.148-0.136c1.132-0.089,2.017-0.136,2.652-0.136c1.177,0,2.153,0.431,2.924,1.292
		c0.77,0.863,1.881,2.788,3.332,5.78l30.328,63.92l29.648-67.592c0.997-2.265,2.357-3.4,4.08-3.4c0.453,0,1.109,0.047,1.972,0.136
		c0.86,0.091,2.017,0.136,3.468,0.136l6.392-0.136c0.997-0.089,2.493-0.136,4.488-0.136c0.272,0,0.408,0.272,0.408,0.816
		s-0.136,0.816-0.408,0.816c-4.535,0-7.775,0.659-9.724,1.972c-1.951,1.315-2.879,3.787-2.788,7.412l2.72,62.967
		c0.089,2.813,0.429,4.852,1.02,6.121c0.589,1.27,1.653,2.131,3.196,2.584c1.541,0.454,4.033,0.68,7.48,0.68
		C116.81,91.895,116.945,92.166,116.945,92.711z"/>
	<path fill="#E5E5E5" d="M219.761,92.711c0,0.543-0.136,0.815-0.408,0.815c-2.811,0-5.079-0.044-6.8-0.136l-9.384-0.137
		l-9.928,0.137c-1.632,0.092-3.763,0.136-6.392,0.136c-0.272,0-0.408-0.272-0.408-0.815c0-0.545,0.136-0.816,0.408-0.816
		c3.536,0,6.12-0.226,7.752-0.68c1.632-0.453,2.72-1.314,3.264-2.584s0.816-3.309,0.816-6.121V19.814l-58.48,74.936
		c-0.272,0.361-0.816,0.545-1.632,0.545c-1.36,0-2.04-0.319-2.04-0.953V19.542c0-2.72-0.295-4.713-0.884-5.984
		c-0.591-1.269-1.724-2.153-3.4-2.652c-1.679-0.497-4.239-0.748-7.684-0.748c-0.183,0-0.272-0.272-0.272-0.816
		s0.089-0.816,0.272-0.816l7.072,0.136c3.808,0.183,6.889,0.272,9.248,0.272c2.628,0,5.937-0.089,9.928-0.272l6.392-0.136
		c0.272,0,0.408,0.272,0.408,0.816s-0.136,0.816-0.408,0.816c-3.536,0-6.12,0.251-7.752,0.748c-1.632,0.5-2.72,1.383-3.264,2.652
		c-0.544,1.271-0.816,3.264-0.816,5.984v63.512l58.616-75.208c0.272-0.272,0.769-0.408,1.496-0.408c1.36,0,2.04,0.319,2.04,0.952
		v74.12c0,2.721,0.293,4.739,0.884,6.053c0.588,1.315,1.7,2.199,3.332,2.652c1.632,0.454,4.169,0.68,7.616,0.68
		C219.625,91.895,219.761,92.166,219.761,92.711z"/>
	<path fill="#E5E5E5" d="M294.017,8.254c4.441,0.816,7.977,1.995,10.608,3.536c0.816,0.363,1.336,0.748,1.564,1.156
		c0.225,0.408,0.385,1.111,0.477,2.108l1.496,15.232c0,0.272-0.229,0.432-0.682,0.476c-0.453,0.047-0.727-0.068-0.814-0.34
		c-1.996-6.98-5.692-12.125-11.084-15.436c-5.396-3.309-12.084-4.964-20.061-4.964c-6.892,0-12.92,1.519-18.088,4.556
		c-5.168,3.039-9.159,7.323-11.968,12.852c-2.812,5.532-4.216,11.923-4.216,19.176c0,8.433,1.745,16.23,5.236,23.392
		c3.489,7.164,8.205,12.831,14.144,17c5.937,4.172,12.353,6.256,19.244,6.256c6.527,0,12.193-1.789,17-5.371
		c4.805-3.581,8.477-9.089,11.016-16.524c0-0.272,0.182-0.408,0.545-0.408c0.271,0,0.52,0.047,0.748,0.136
		c0.225,0.092,0.34,0.229,0.34,0.408l-1.904,15.368c-0.184,1.088-0.387,1.792-0.611,2.108c-0.229,0.318-0.748,0.658-1.564,1.02
		c-8.161,3.447-16.776,5.168-25.84,5.168c-10.88,0-19.971-2.197-27.268-6.596c-7.3-4.396-12.671-9.996-16.116-16.796
		c-3.447-6.8-5.168-13.962-5.168-21.488c0-8.341,2.312-15.821,6.936-22.44c4.624-6.617,10.744-11.741,18.36-15.368
		c7.616-3.625,15.776-5.44,24.481-5.44C285.177,7.03,289.574,7.438,294.017,8.254z"/>
	<path fill="#E5E5E5" d="M385,8.254c4.441,0.816,7.977,1.995,10.607,3.536c0.816,0.363,1.336,0.748,1.564,1.156
		c0.225,0.408,0.385,1.111,0.477,2.108l1.496,15.232c0,0.272-0.229,0.432-0.682,0.476c-0.453,0.047-0.727-0.068-0.814-0.34
		c-1.996-6.98-5.691-12.125-11.084-15.436c-5.396-3.309-12.084-4.964-20.061-4.964c-6.893,0-12.92,1.519-18.088,4.556
		c-5.168,3.039-9.158,7.323-11.969,12.852c-2.811,5.532-4.215,11.923-4.215,19.176c0,8.433,1.744,16.23,5.234,23.392
		c3.49,7.164,8.205,12.831,14.145,17c5.938,4.172,12.354,6.256,19.244,6.256c6.527,0,12.193-1.789,17-5.371
		c4.805-3.581,8.477-9.089,11.016-16.524c0-0.272,0.182-0.408,0.545-0.408c0.271,0,0.52,0.047,0.748,0.136
		c0.225,0.092,0.34,0.229,0.34,0.408L398.6,86.862c-0.184,1.088-0.387,1.792-0.611,2.108c-0.229,0.318-0.748,0.658-1.564,1.02
		c-8.16,3.447-16.775,5.168-25.84,5.168c-10.881,0-19.971-2.197-27.268-6.596c-7.301-4.396-12.672-9.996-16.117-16.796
		c-3.447-6.8-5.168-13.962-5.168-21.488c0-8.341,2.313-15.821,6.936-22.44c4.625-6.617,10.744-11.741,18.361-15.368
		c7.615-3.625,15.775-5.44,24.48-5.44C376.16,7.03,380.557,7.438,385,8.254z"/>
	<path fill="#E5E5E5" d="M506.311,92.711c0,0.543-0.137,0.815-0.408,0.815c-2.813,0-5.078-0.044-6.801-0.136l-9.383-0.137
		l-9.928,0.137c-1.633,0.092-3.764,0.136-6.393,0.136c-0.271,0-0.408-0.272-0.408-0.815c0-0.545,0.137-0.816,0.408-0.816
		c3.535,0,6.119-0.226,7.752-0.68c1.631-0.453,2.719-1.314,3.264-2.584s0.816-3.309,0.816-6.121V19.814L426.75,94.75
		c-0.271,0.361-0.816,0.545-1.633,0.545c-1.359,0-2.039-0.319-2.039-0.953V19.542c0-2.72-0.295-4.713-0.885-5.984
		c-0.59-1.269-1.723-2.153-3.398-2.652c-1.68-0.497-4.24-0.748-7.686-0.748c-0.182,0-0.271-0.272-0.271-0.816
		s0.09-0.816,0.271-0.816l7.072,0.136c3.809,0.183,6.891,0.272,9.248,0.272c2.629,0,5.938-0.089,9.928-0.272l6.393-0.136
		c0.271,0,0.408,0.272,0.408,0.816s-0.137,0.816-0.408,0.816c-3.535,0-6.119,0.251-7.752,0.748c-1.633,0.5-2.721,1.383-3.264,2.652
		c-0.545,1.271-0.816,3.264-0.816,5.984v63.512l58.615-75.208c0.273-0.272,0.77-0.408,1.496-0.408c1.361,0,2.041,0.319,2.041,0.952
		v74.12c0,2.721,0.293,4.739,0.883,6.053c0.59,1.315,1.701,2.199,3.332,2.652c1.633,0.454,4.17,0.68,7.617,0.68
		C506.174,91.895,506.311,92.166,506.311,92.711z"/>
	<path fill="#E5E5E5" d="M587.094,92.711c0,0.543-0.092,0.815-0.271,0.815c-2.902,0-5.168-0.044-6.801-0.136l-9.383-0.137
		l-9.521,0.137c-1.631,0.092-3.854,0.136-6.664,0.136c-0.182,0-0.271-0.272-0.271-0.815c0-0.545,0.09-0.816,0.271-0.816
		c3.445,0,5.984-0.226,7.617-0.68c1.631-0.453,2.721-1.337,3.264-2.652c0.545-1.313,0.816-3.332,0.816-6.053V49.462
		c-2.992,0.183-5.576,0.839-7.752,1.972c-2.176,1.135-4.488,3.175-6.936,6.12c-2.449,2.947-5.352,7.322-8.705,13.123
		c-4.443,7.617-7.82,13.057-10.131,16.32c-2.313,3.264-3.945,5.168-4.896,5.713c-0.953,0.543-2.199,0.815-3.74,0.815h-14.008
		c-0.271,0-0.408-0.272-0.408-0.815c0-0.545,0.137-0.816,0.408-0.816c4.713-0.09,8.793-1.926,12.24-5.508
		c3.443-3.581,7.615-9.725,12.512-18.428c3.443-5.984,6.617-10.336,9.52-13.057c2.9-2.721,6.256-4.533,10.064-5.44
		c-7.889-0.725-13.896-2.877-18.02-6.46c-4.127-3.581-6.189-8.228-6.189-13.94c0-4.08,1.064-7.706,3.197-10.88
		c2.129-3.172,5.076-5.644,8.84-7.412c3.762-1.768,8-2.652,12.715-2.652c2.086,0,4.488,0.136,7.209,0.408
		c1.088,0.091,2.355,0.183,3.809,0.272c1.449,0.091,3.035,0.136,4.76,0.136c2.355,0,5.439-0.089,9.248-0.272l6.936-0.136
		c0.18,0,0.271,0.272,0.271,0.816s-0.092,0.816-0.271,0.816c-3.537,0-6.121,0.251-7.752,0.748c-1.633,0.5-2.721,1.383-3.264,2.652
		c-0.545,1.271-0.816,3.264-0.816,5.984V82.51c0,2.721,0.293,4.739,0.885,6.053c0.588,1.315,1.676,2.199,3.264,2.652
		c1.584,0.454,4.146,0.68,7.684,0.68C587.002,91.895,587.094,92.166,587.094,92.711z M544.934,41.574
		c3.717,3.991,9.113,5.984,16.184,5.984c1.178,0,2.857-0.089,5.033-0.272V19.814c0-3.625-1.088-6.188-3.264-7.684
		s-4.896-2.244-8.16-2.244c-10.248,0-15.369,5.259-15.369,15.776C539.357,32.282,541.215,37.586,544.934,41.574z"/>
</g>
</svg>
